# xmcd
#
# Track frame offsets: 
#        150
#        17465
#        37258
#        71923
#        86563
#        105783
#        127515
#        148763
#        164115
#        192735
#        213690
#        236838
#        257968
#
# Disc length: 3694 seconds
#
# Revision: 2
# Processed by: cddbd v1.5.2PL0 Copyright (c) Steve Scherf et al.
# Submitted via: ExactAudioCopy v1.0b4
#
DISCID=c30e6c0d
DTITLE=Willie Kent - Too Hurt To Cry
DYEAR=1994
DGENRE=Blues
TTITLE0=Too Hurt To Cry
TTITLE1=Going Down The Road
TTITLE2=A Man And The Blues
TTITLE3=Willie Mae
TTITLE4=Blues Train
TTITLE5=Just Sitting Here Thinking
TTITLE6=Good Man Feeling Bad
TTITLE7=This Thing Called Love
TTITLE8=911
TTITLE9=In Case We Both Are Wrong
TTITLE10=Night Time Is The Right Time
TTITLE11=Countdown
TTITLE12=All Nite Long
EXTD=ID3G: 0
EXTT0=
EXTT1=
EXTT2=
EXTT3=
EXTT4=
EXTT5=
EXTT6=
EXTT7=
EXTT8=
EXTT9=
EXTT10=
EXTT11=
EXTT12=
PLAYORDER=
